<svg width="24" height="25" viewBox="0 0 24 25" fill="none" xmlns="http://www.w3.org/2000/svg">
<g clip-path="url(#clip0_24_118)">
<path d="M11.9143 8.6568C9.70069 8.6568 7.896 10.4615 7.896 12.6751C7.896 14.8886 9.70069 16.7074 11.9284 16.7074C14.156 16.7074 15.9607 14.9027 15.9607 12.6751C15.9466 10.4615 14.1419 8.6568 11.9143 8.6568Z" fill="#979596"/>
<path d="M17.2574 0.761261H6.58431C2.94673 0.761261 0 3.70799 0 7.34558V18.0327C0 21.6562 2.94673 24.6171 6.58431 24.6171H17.2715C20.895 24.6171 23.8558 21.6703 23.8558 18.0327V7.34558C23.8417 3.70799 20.8809 0.761261 17.2574 0.761261ZM11.9138 18.8223C8.53 18.8223 5.76656 16.073 5.76656 12.6751C5.78066 9.29126 8.53 6.54192 11.9138 6.54192C15.2976 6.54192 18.061 9.29126 18.061 12.6892C18.061 16.073 15.3117 18.8223 11.9138 18.8223ZM20.1195 6.68291C19.8375 6.9649 19.4287 7.13409 19.0198 7.13409C18.6109 7.13409 18.2161 6.9649 17.9201 6.68291C17.6381 6.40093 17.4689 5.99205 17.4689 5.58318C17.4689 5.1743 17.6381 4.77953 17.9201 4.48344C18.202 4.20146 18.6109 4.03227 19.0198 4.03227C19.4287 4.03227 19.8234 4.20146 20.1195 4.48344C20.4156 4.76543 20.5707 5.1743 20.5707 5.58318C20.5707 5.99205 20.4156 6.40093 20.1195 6.68291Z" fill="#979596"/>
</g>
<defs>
<clipPath id="clip0_24_118">
<rect width="23.8417" height="23.8417" fill="white" transform="translate(0 0.761261)"/>
</clipPath>
</defs>
</svg>
