<svg width="30" height="21" viewBox="0 0 30 21" fill="none" xmlns="http://www.w3.org/2000/svg">
<g clip-path="url(#clip0_24_127)">
<path fill-rule="evenodd" clip-rule="evenodd" d="M11.9228 14.0905L11.9219 6.09022L19.652 10.1042L11.9228 14.0905ZM28.8957 4.7039C28.8957 4.7039 28.6159 2.74186 27.7585 1.87785C26.6704 0.743337 25.4509 0.737997 24.8921 0.672151C20.8885 0.383851 14.8831 0.38385 14.8831 0.38385H14.8705C14.8705 0.38385 8.86511 0.383851 4.86149 0.672151C4.30181 0.737997 3.08321 0.743337 1.99424 1.87785C1.13683 2.74186 0.857873 4.7039 0.857873 4.7039C0.857873 4.7039 0.571777 7.00851 0.571777 9.31223V11.4727C0.571777 13.7773 0.857873 16.081 0.857873 16.081C0.857873 16.081 1.13683 18.0431 1.99424 18.9071C3.08321 20.0416 4.51281 20.006 5.14938 20.1244C7.43818 20.3433 14.8768 20.4109 14.8768 20.4109C14.8768 20.4109 20.8885 20.402 24.8921 20.1137C25.4509 20.047 26.6704 20.0416 27.7585 18.9071C28.6159 18.0431 28.8957 16.081 28.8957 16.081C28.8957 16.081 29.1818 13.7773 29.1818 11.4727V9.31223C29.1818 7.00851 28.8957 4.7039 28.8957 4.7039Z" fill="#979596"/>
</g>
<defs>
<clipPath id="clip0_24_127">
<rect width="28.61" height="20.027" fill="white" transform="translate(0.571777 0.38385)"/>
</clipPath>
</defs>
</svg>
